:SAMPLES-PER-SECOND 30
:FRAME-RANGE 1-1700
:FULLY-SPECIFIED
:DEGREES
585
root  69.2004 33.7196 29.2161 171.352 -33.1758 170.921
RightUpLeg  -13.2247 0.526953 6.26703
RightLeg  60.7194 -3.27264 -6.81694
RightFoot  -33.7611 -2.20611 -9.94318
RightToes  6.35937e-011 1.2921e-014 -6.02303e-014
Spine  19.6827 1.89334 -6.18874
Spine1  0.0403862 -1.91065 8.7076
HEad  8.10066 15.7514 -9.81281
LeftShoulder1  2.16369 -11.4276 -7.32419
LeftArm  11.5215 -36.305 -85.7658
LeftForeArm  80.7933 5.40887 -12.1847
LeftHand  -0.312613 11.155 -4.84364
RightShoulder  3.43041 7.6883 25.2283
RightArm  -10.1032 31.3905 71.1089
RightForeArm  97.1294 -4.67437 6.90261
RightHand  0.912358 -10.6149 -20.4612
LeftUpLeg  -94.9768 13.0725 -51.5969
LeftLeg  117.594 0.434144 -1.34286
LeftFoot  -29.3095 -0.993488 -7.39134
LeftToes  -1.9349e-011 5.45182e-011 1.33515e-010
586
root  68.4289 33.2876 28.6193 169.958 -32.038 172.504
RightUpLeg  -11.8437 -0.285439 7.05323
RightLeg  62.8591 -2.51147 -5.88615
RightFoot  -36.3972 -2.55654 -10.3554
RightToes  6.35937e-011 1.2921e-014 -6.02303e-014
Spine  19.1538 1.12574 -5.38703
Spine1  -0.613172 -2.58489 8.78734
HEad  6.75151 15.9661 -9.23836
LeftShoulder1  2.41709 -12.017 -8.54182
LeftArm  11.5254 -35.7191 -84.7584
LeftForeArm  81.1141 6.13892 -12.4401
LeftHand  -0.297509 10.8523 -4.83517
RightShoulder  3.22689 6.93212 25.5548
RightArm  -8.7172 29.1663 69.92
RightForeArm  95.5223 -5.04406 8.74423
RightHand  0.902431 -10.5009 -20.6788
LeftUpLeg  -93.7473 12.3848 -52.1715
LeftLeg  119.566 -1.01216 1.09979
LeftFoot  -28.8371 -0.846633 -6.62366
LeftToes  -1.9349e-011 5.45182e-011 1.33515e-010
587
root  67.7689 33.5527 27.927 170.349 -30.5669 172.49
RightUpLeg  -9.76891 -0.473026 6.28264
RightLeg  61.4655 -1.85345 -4.23043
RightFoot  -37.0174 -2.7343 -10.8525
RightToes  6.35937e-011 1.2921e-014 -6.02303e-014
Spine  17.1868 0.726029 -5.34379
Spine1  -0.195909 -2.80813 8.09741
HEad  4.93772 15.4624 -9.97064
LeftShoulder1  2.59298 -12.0071 -9.83621
LeftArm  13.6025 -35.1419 -83.8594
LeftForeArm  81.5075 5.66476 -13.0343
LeftHand  -0.302395 11.2048 -4.60268
RightShoulder  3.30959 7.00712 26.1546
RightArm  -9.93923 28.9127 69.368
RightForeArm  95.9039 -4.91021 8.01476
RightHand  0.965813 -10.7829 -20.934
LeftUpLeg  -93.4063 11.3681 -52.4723
LeftLeg  118.86 -0.866913 0.893328
LeftFoot  -29.0379 -0.773603 -6.08742
LeftToes  -1.9349e-011 5.45182e-011 1.33515e-010
588
root  67.1524 34.2589 27.199 171.14 -29.1804 171.419
RightUpLeg  -6.67358 -0.561537 4.24217
RightLeg  57.9267 -0.995096 -2.17688
RightFoot  -36.0801 -2.77797 -11.5016
RightToes  6.35937e-011 1.2921e-014 -6.02303e-014
Spine  15.7109 0.937904 -5.51915
Spine1  -0.427068 -2.34423 7.05416
HEad  5.37489 14.4298 -10.7539
LeftShoulder1  2.61988 -11.6283 -10.5169
LeftArm  16.3853 -35.7086 -84.7367
LeftForeArm  80.0009 5.72166 -13.5724
LeftHand  -0.289429 11.3332 -4.2494
RightShoulder  3.39153 7.19482 26.3719
RightArm  -12.7871 29.509 69.4608
RightForeArm  97.8255 -4.44713 5.70347
RightHand  0.992055 -10.9702 -20.7826
LeftUpLeg  -93.909 9.58864 -52.6084
LeftLeg  116.813 -0.447347 0.223207
LeftFoot  -29.425 -0.822621 -6.27741
LeftToes  -1.9349e-011 5.45182e-011 1.33515e-010
589
root  66.5974 35.2935 26.4396 171.664 -27.0499 169.726
RightUpLeg  -2.9336 0.48936 2.01111
RightLeg  53.5846 -0.222119 -0.720592
RightFoot  -33.0039 -2.33006 -10.9669
RightToes  6.35937e-011 1.2921e-014 -6.02303e-014
Spine  15.0538 1.75965 -5.39904
Spine1  -1.11709 -1.11246 5.18543
HEad  7.43713 13.7608 -10.6395
LeftShoulder1  2.47059 -11.182 -9.97325
LeftArm  16.5354 -36.4823 -86.3084
LeftForeArm  79.9966 5.82166 -13.4135
LeftHand  -0.279447 11.4269 -3.99132
RightShoulder  3.56993 7.75048 26.3656
RightArm  -13.1405 30.2481 68.9302
RightForeArm  97.0092 -4.44094 5.4314
RightHand  0.93788 -10.7143 -20.6208
LeftUpLeg  -95.8062 8.58464 -52.8154
LeftLeg  114.727 -0.600331 0.563869
LeftFoot  -29.3972 -0.859757 -6.51925
LeftToes  -1.9349e-011 5.45182e-011 1.33515e-010
590
root  66.126 36.4828 25.7117 172.013 -24.442 168.703
RightUpLeg  -1.5486 3.01671 0.947684
RightLeg  52.1027 0.613369 0.468153
RightFoot  -26.1626 -1.32172 -8.77951
RightToes  6.35937e-011 1.2921e-014 -6.02303e-014
Spine  14.4794 2.34712 -4.92004
Spine1  -1.67324 -0.146559 3.76566
HEad  10.0069 14.6928 -10.4094
LeftShoulder1  2.27971 -10.4076 -9.49781
LeftArm  15.8528 -36.454 -86.3101
LeftForeArm  78.705 4.53907 -13.2455
LeftHand  -0.266998 11.3907 -3.78847
RightShoulder  3.72121 8.12788 26.6359
RightArm  -13.6502 31.3627 69.2465
RightForeArm  97.7663 -4.2831 4.68584
RightHand  0.910013 -10.5089 -20.808
LeftUpLeg  -98.5283 8.09844 -52.1439
LeftLeg  112.441 -0.355602 0.103202
LeftFoot  -29.4958 -0.78849 -6.04215
LeftToes  -1.9349e-011 5.45182e-011 1.33515e-010
591
root  65.6644 37.6477 25.1065 171.414 -23.7514 168.252
RightUpLeg  -1.83975 2.96362 -0.605232
RightLeg  53.7145 2.23186 2.87083
RightFoot  -16.2148 -0.391525 -6.61916
RightToes  6.35937e-011 1.2921e-014 -6.02303e-014
Spine  15.0081 2.32116 -5.07902
Spine1  -1.73774 -0.28401 4.50339
HEad  12.7693 15.7583 -10.7625
LeftShoulder1  2.27788 -10.3699 -9.53422
LeftArm  14.8622 -36.6537 -86.1467
LeftForeArm  77.1874 4.02416 -13.0218
LeftHand  -0.235962 11.549 -3.11692
RightShoulder  3.84621 8.51669 26.6242
RightArm  -14.2837 33.2472 69.062
RightForeArm  98.6559 -4.07675 3.69041
RightHand  0.934945 -10.661 -20.7561
LeftUpLeg  -98.5351 7.5634 -52.1074
LeftLeg  109.378 -0.108908 -0.487653
LeftFoot  -29.4864 -0.869165 -6.5489
LeftToes  -1.9349e-011 5.45182e-011 1.33515e-010
592
root  65.2317 38.4813 24.6175 170.741 -23.4312 168.545
RightUpLeg  -4.15345 2.54346 -1.2242
RightLeg  56.6256 2.50725 3.66483
RightFoot  -7.50316 0.107731 -4.72333
RightToes  6.35937e-011 1.2921e-014 -6.02303e-014
Spine  16.3075 2.23762 -4.30983
Spine1  -2.05956 -0.372166 5.11377
HEad  15.4386 16.1494 -10.3979
LeftShoulder1  2.3104 -10.9128 -9.07735
LeftArm  12.6349 -37.352 -86.6918
LeftForeArm  75.195 5.27003 -12.4032
LeftHand  -0.188517 11.2635 -2.39924
RightShoulder  3.79658 8.62665 25.8777
RightArm  -14.1068 35.1606 68.9916
RightForeArm  99.9762 -3.9441 3.26626
RightHand  0.914954 -10.6182 -20.5029
LeftUpLeg  -98.1574 7.18599 -52.6417
LeftLeg  106.334 0.208673 -1.51233
LeftFoot  -29.2214 -0.973487 -7.29818
LeftToes  -1.9349e-011 5.45182e-011 1.33515e-010
593
root  64.8707 38.9279 24.1926 170.977 -22.8063 168.86
RightUpLeg  -6.55784 2.30764 -1.27323
RightLeg  54.8614 -0.450322 -1.10209
RightFoot  -8.79533 0.0328319 -4.14872
RightToes  6.35937e-011 1.2921e-014 -6.02303e-014
Spine  17.2771 2.40395 -3.86363
Spine1  -1.96677 -0.296281 6.00876
HEad  16.3587 16.2281 -10.0028
LeftShoulder1  2.38342 -11.3823 -9.05057
LeftArm  11.5669 -38.2165 -86.5951
LeftForeArm  71.9678 5.52605 -12.1065
LeftHand  -0.161868 10.7771 -2.11908
RightShoulder  3.75061 8.749 25.1402
RightArm  -12.003 36.8446 68.061
RightForeArm  99.2762 -4.21092 4.67818
RightHand  0.899596 -10.6272 -20.1532
LeftUpLeg  -98.3366 6.87961 -53.562
LeftLeg  103.258 0.408493 -2.54654
LeftFoot  -28.7898 -0.999403 -7.63223
LeftToes  -1.9349e-011 5.45182e-011 1.33515e-010
594
root  64.5232 39.1453 23.8833 171.288 -21.7824 169.583
RightUpLeg  -8.62541 2.2661 -1.21852
RightLeg  48.1724 -3.14918 -4.10181
RightFoot  -12.4657 -0.116728 -3.30977
RightToes  6.35937e-011 1.2921e-014 -6.02303e-014
Spine  19.6414 2.22134 -2.09446
Spine1  -2.80359 -0.123267 5.93852
HEad  15.6492 16.6255 -10.1732
LeftShoulder1  2.38826 -11.5237 -8.91356
LeftArm  10.3786 -38.2612 -86.1305
LeftForeArm  70.2108 4.2106 -11.732
LeftHand  -0.145407 10.6363 -1.84352
RightShoulder  3.69619 8.83617 24.434
RightArm  -10.7082 38.135 67.8259
RightForeArm  98.8865 -4.34187 5.36422
RightHand  0.907957 -10.5742 -20.5199
LeftUpLeg  -98.1516 7.15753 -53.5699
LeftLeg  100.008 0.555951 -3.93081
LeftFoot  -28.6391 -1.07025 -8.15739
LeftToes  -1.9349e-011 5.45182e-011 1.33515e-010
595
root  64.1552 38.9199 23.6697 171.521 -20.0611 170.489
RightUpLeg  -11.1743 2.93162 -0.896352
RightLeg  40.3204 -4.3039 -4.18486
RightFoot  -16.7654 -0.201249 -1.85531
RightToes  6.35937e-011 1.2921e-014 -6.02303e-014
Spine  22.8717 2.10506 0.56096
Spine1  -3.76449 0.534113 5.25879
HEad  13.6854 17.0081 -11.3717
LeftShoulder1  2.40027 -11.5835 -8.93109
LeftArm  9.42677 -38.5054 -86.0262
LeftForeArm  68.1694 2.58474 -11.3139
LeftHand  -0.12478 10.5797 -1.42923
RightShoulder  3.54203 9.08739 22.4638
RightArm  -9.70289 39.3443 68.577
RightForeArm  97.8783 -4.42581 5.58802
RightHand  0.874987 -10.3791 -20.5578
LeftUpLeg  -98.2225 7.67241 -52.6457
LeftLeg  97.2392 0.512499 -4.84982
LeftFoot  -28.4456 -1.15993 -8.83638
LeftToes  -1.9349e-011 5.45182e-011 1.33515e-010
596
root  63.8167 38.2425 23.3159 173.126 -17.991 170.507
RightUpLeg  -15.351 4.14772 -1.1456
RightLeg  34.7896 -6.71679 -5.24341
RightFoot  -17.0067 -0.124865 -0.198394
RightToes  6.35937e-011 1.2921e-014 -6.02303e-014
Spine  23.7749 2.33256 1.60463
Spine1  -3.46063 1.27102 4.79365
HEad  12.9853 18.1538 -11.9677
LeftShoulder1  2.32277 -11.3421 -8.63762
LeftArm  8.9617 -38.6791 -86.4829
LeftForeArm  68.0397 0.864154 -11.0173
LeftHand  -0.12467 10.6106 -1.41495
RightShoulder  3.45574 9.45957 20.8523
RightArm  -8.85042 40.8756 69.5821
RightForeArm  97.3332 -4.44542 5.55166
RightHand  0.865336 -10.4733 -19.9961
LeftUpLeg  -99.1476 7.80762 -51.9767
LeftLeg  95.4129 0.451405 -5.58122
LeftFoot  -28.1071 -1.16179 -9.01532
LeftToes  -1.9349e-011 5.45182e-011 1.33515e-010
597
root  63.5406 37.4961 22.7259 173.273 -15.8008 170.994
RightUpLeg  -18.7808 6.05947 -0.0125356
RightLeg  36.0046 -8.39886 -6.76242
RightFoot  -6.99776 0.208524 -6.73176
RightToes  6.35937e-011 1.2921e-014 -6.02303e-014
Spine  24.2422 2.96852 3.49002
Spine1  -2.56544 2.00345 4.31693
HEad  14.0369 19.2289 -11.4222
LeftShoulder1  2.16221 -10.8151 -8.02909
LeftArm  10.7692 -39.452 -88.3482
LeftForeArm  70.327 0.24815 -11.1976
LeftHand  -0.13888 11.2462 -1.46656
RightShoulder  3.35097 9.85141 19.1279
RightArm  -8.96364 41.3411 70.7596
RightForeArm  97.1121 -4.3632 4.98652
RightHand  0.82788 -10.3899 -19.4988
LeftUpLeg  -99.1211 9.62757 -49.9068
LeftLeg  95.4976 0.579264 -6.46659
LeftFoot  -28.4082 -1.22031 -9.25468
LeftToes  -1.9349e-011 5.45182e-011 1.33515e-010
598
root  63.2054 35.7532 22.1326 171.069 -14.6578 170.905
RightUpLeg  -22.5045 6.22215 0.570468
RightLeg  49.9439 -5.94761 -7.87938
RightFoot  -15.0562 -0.288266 -5.74841
RightToes  6.35937e-011 1.2921e-014 -6.02303e-014
Spine  26.3983 2.99398 3.37563
Spine1  -1.4246 2.45783 3.94596
HEad  15.6161 20.9113 -11.5509
LeftShoulder1  2.07222 -10.9918 -7.11012
LeftArm  10.3715 -39.6093 -89.5452
LeftForeArm  73.743 -0.49792 -10.7215
LeftHand  -0.167408 11.5131 -1.89452
RightShoulder  3.26627 10.01 18.1106
RightArm  -8.06197 41.5782 71.5355
RightForeArm  96.4586 -4.46272 5.40706
RightHand  0.815667 -10.4359 -19.0703
LeftUpLeg  -98.5922 10.7424 -48.9224
LeftLeg  97.9684 0.313898 -3.37223
LeftFoot  -27.8725 -1.01663 -8.14048
LeftToes  -1.9349e-011 5.45182e-011 1.33515e-010
599
root  62.927 34.6908 21.3749 170.078 -15.4567 171.75
RightUpLeg  -23.8027 4.33962 1.63904
RightLeg  57.0272 -4.93019 -8.57455
RightFoot  -19.9405 -0.588321 -6.02605
RightToes  6.35937e-011 1.2921e-014 -6.02303e-014
Spine  25.5819 2.08188 3.2306
Spine1  0.996643 1.22988 4.87042
HEad  16.3179 22.8815 -11.5045
LeftShoulder1  2.07937 -11.0955 -7.04823
LeftArm  11.3897 -40.04 -89.3953
LeftForeArm  76.0012 -0.214317 -10.9163
LeftHand  -0.165349 11.9045 -1.70983
RightShoulder  3.21504 9.89902 17.9129
RightArm  -7.99714 41.272 72.0206
RightForeArm  95.7122 -4.49793 5.40913
RightHand  0.848353 -10.5821 -19.2498
LeftUpLeg  -96.248 10.8605 -48.6776
LeftLeg  99.7115 -0.0668289 -1.03606
LeftFoot  -27.7517 -0.920448 -7.53164
LeftToes  -1.9349e-011 5.45182e-011 1.33515e-010
